<?xml version="1.0" encoding="UTF-8"?>
<svg id="Vector_layer" xmlns="http://www.w3.org/2000/svg" version="1.1" viewBox="0 0 1574 356">
  <!-- Generator: Adobe Illustrator 29.7.1, SVG Export Plug-In . SVG Version: 2.1.1 Build 8)  -->
  <defs>
    <style>
      .st0 {
        fill: #fff;
      }

      .st1 {
        fill: red;
      }

      .st2 {
        fill: #ffc700;
      }

      .st3 {
        fill: #ffc600;
      }
    </style>
  </defs>
  <path class="st0" d="M91.6,258.9c-10.2-10.1-2.7-26.1-2-38.5,3.8-17,2-34.1,1-51.2,1.1-13.5-3.1-35,5.2-45.7,6.4-8.6,17.2-12.3,27.3-14.8,41.5-10.1,56.9,30,35.1,61.3,38.6,8.2,2.8,64.3-18,74.7-10.1,5.8-35.3,2.9-30.7-13.1,4.3-7.8,8.6-6.8,13.4-5.8,5.1,1.1,10.8,2.1,17.4-7.6,6.4-8.2,12.8-17.4,14.4-27.9-11.1-4.4-41.4-1.4-40.4-17.6,1.5-13.4,17.7-7.3,25.8-12.8,8.6-9.8,13.3-33.9-6.2-32.4-7.8,1.5-16.7,2.8-22,9-.4,13.4-1,26.9-.2,40.3.9,9.4,2.1,18.8.9,28.3-1.2,13.5-4.2,26.7-5.4,40.2,5.6,7.4-1.2,16.5-8.7,16.5s-4.6-.8-6.7-2.8h-.2Z"/>
  <path class="st0" d="M216.5,118.8c-.2,2.5-.4,5-.2,7.3.6,14.5.2,28.9-1.3,43.4.6,12.9,1,25.7.2,38.6.3,8.3.4,16.7-.9,25-.8,7.9-.7,17.1-11.9,17.1-11.9-1.3-9.6-12.9-8.3-21,1.5-12.5.2-25.2,1.1-37.8,0-7.7-.8-15.4-.7-23.2.1-7.2,1.6-14.3,1.6-21.5-.2-8.7-.4-17.3-.3-26,.2-.3.3-.5.5-.8.1-.2.2-.5.3-.7.4,0,.8,0,1.3,0,2,.2,4.1.3,6.1.3,3.3,0,6.5-.3,9.8-.6.8,0,1.6,0,2.5,0h.2,0Z"/>
  <path class="st0" d="M201,129.5c-11.7-5.3-7.3-19.3,4.5-20.9,6.6-1.5,13.4-1.3,19.9-2.9,10.4-3,21.1-4,31.7-6.1,8.5-1.4,22-5.2,24.2,6.6.7,12.5-9.2,11.8-18.3,13.2-9.1,1.8-18.3,3-27.4,4.8-7,2-14.2,3.3-21.4,3.7-3.5,0-6.9,2.1-10.3,2.1s-2-.2-3-.6h0Z"/>
  <path class="st0" d="M206,184c-2.4-1.3-4.3-3.5-5.1-6.1-2.5-11.1,7.2-13.7,16-14.8,8.6-1.9,17.4-1.8,26.2-2.1,13.5-.3,14.3,19.6.8,20.5-5.4.3-10.8.1-16.1.6-5.3,0-11.6,2.8-17.1,2.8s-3.3-.3-4.8-1h.1Z"/>
  <path class="st0" d="M204,238.7c-4.1-3.8-4.4-10.4-.6-14.5,5.5-5.1,13.8-5.2,20.8-6.2,12.4-.7,24.8-2.4,37.2-3.3,6.7-.8,13.4-1.6,20.1-2.2,2.6-.2,5.5,1,7.4,2.7,4.1,3.7,4.4,10.5.6,14.5-3.5,3.9-9,3.3-13.8,3.9-17.2,2-34.4,3.8-51.7,4.9-4.5.2-9.2,2.6-13.6,2.6s-4.4-.6-6.4-2.6v.2Z"/>
  <path class="st0" d="M314,253.7c-12.6-5.6-6-21.7-5.6-32.1.5-8.1,0-16.2-.5-24.4,0-12,2.4-23.9,1.8-36,1.4-11.2-3.4-45.3,4.9-50.4,6.8-5.5,17.8.8,16.4,9.5-1.7,19.5.3,39.2-1.2,58.8-2.5,15.2.2,30.5-1.1,45.8,7.3-5.3,39.5-22.3,47.1-18.7,8.2,3.1,8.3,16,0,19-11.2,4.2-22.5,8.4-32.7,14.7-8.1,4.4-15.2,14.6-24.7,14.6s-2.9-.2-4.4-.7h0Z"/>
  <path class="st0" d="M390.1,279.2c-5.4-1.2-9.1-6.9-7.7-12.3,1.5-5.7,4.7-10.7,7.2-16,5.6-16.8,11.3-33.6,16.6-50.5,6.4-17.8,12.4-35.7,18-53.8,3.6-9.3,6.9-18.8,8.9-28.6.8-10.1,8.5-18.9,18.6-12.2,13.5,12,17.8,30.6,25.7,46.1,7,12.6,15.9,24.1,25.5,34.9,5.2,6.1,9.7,12.7,14.4,19.2,3.1,4.5,1.4,11.4-3.3,14.2-13.2,7.6-19.6-14.2-27.8-21.2-16.2-17.4-28.9-38.4-37.2-60.5-13.5,39.1-26.5,78.4-39.4,117.8-1.7,4.7-4.3,9.1-6.5,13.5-1.2,5.3-5.2,9.8-10.6,9.8s-1.6,0-2.4-.3h0Z"/>
  <path class="st0" d="M424.3,185.8c-.3-10.7,10.8-11.1,18.8-11.5,4.9-.8,9.8-1.7,14.6-2.6,4.9-.9,9.9-1.1,14.9-1.3,3.1-1.4,6.4-2.3,9.7-1,8.3,2.8,8.9,15.6.7,18.9-5.6,3-11.9,2.6-18,3.1-4.7.6-9.3,1.6-14,2.5-4,.6-9.3,1.7-14.1,1.7s-11.8-2-12.5-9.7h-.1Z"/>
  <path class="st0" d="M603.9,259.9c-2.9-.6-5.5-1.9-8.1-3.3-1.2-.6-2.3-1.3-3.4-2.1-5,6.1-15.9,3.2-17.5-4.3-2-18.6-.3-37.6-.7-56.3-1.7-27.1,1.2-54.3-.7-81.4-2-13.6,11.3-18.7,22.7-17.4,11.8,0,25.1,3,31.2,14.2,7.8,11.7,5.6,52.9-5.3,62.4,6.6,3.6,11.1,9.8,15.3,15.8,6.2,9.7,17.3,19.3,14.4,31.9-5.6,18.6-21.1,41-42.1,41s-3.9-.2-5.9-.6h0ZM594.7,232.5c6,.7,9.8,7.9,16.2,7.6,10.8-3.5,17-14.7,20.9-24.8-5.5-8.4-11.3-16.9-18-24.4-3.6-2.5-8.1-2.3-12.5-2.1-2.2.1-4.5.2-6.5,0,.2,14.6,0,29.1,0,43.7h-.1ZM594.5,115.7c0,2.2.2,4.3.2,6.5,0,14.6,0,29.2-.5,43.7,17-5,15.9-15.9,17.2-30.7.9-14-.7-19.6-14.4-19.6h-2.5Z"/>
  <path class="st0" d="M779.4,237.2c-2.1-27.6.9-55.9,4-83.4,0-14.4,3.9-41.1,23.3-25,6.4,6.5,9.9,15.1,14.9,22.6,5.5-21.3,25.6-43.3,41.1-15.9,9.3,22,5.7,46.9,6.9,70.2.2,9.2,1.5,18.3,3,27.4,1.6,8.8-9.6,15.2-16.5,9.5-13.6-20.7-2.5-69.8-10.8-95.3-5.9,10-5.8,22.7-12.1,32.2-12.8,10.4-23.4-9.6-29.9-18.5-1.8,13-3.3,25.9-3.1,39,0,11.4-2.5,22.9-.5,34.3,1.1,7.3-4.7,11.4-10.4,11.4s-9.1-2.7-9.9-8.6h0Z"/>
  <path class="st0" d="M913.1,249.8c-12.9-7.5-4.2-25.9-6.1-38-2.5-17.9-1.6-36,.9-53.9,1.8-11.9,0-26.1,6.6-36.5,7.1-6,26.6-3.1,35.2-.6,20.9,5.2,29.1,34.7,13.2,49.4,44.8,16.7,1.7,98.2-36.1,62.1-.5,2.9.8,5.3.9,8.1,0,5.9-5.1,10.3-10.5,10.3s-2.7-.3-4.1-.9h0ZM946.5,220.5c11.9-1.4,16.9-18.7,13.3-28.6-9.5-7.6-24.1-3.4-33.8-10-.2,5.3,0,10.6,0,15.9.5,6.6,1.5,13.1,1.3,19.8,2.3-1.9,4.4-2.7,6.2-2.7,4.5,0,7.9,4.4,12.8,5.7h.1ZM930.5,138.8c-1.6,8.4-1.7,17-2.7,25.5,0,.3,0,.6,0,.9,6.6-3.8,14.5-5,20.7-9.6,7.7-10.9-5.2-17-15.1-17s-1.9,0-2.8.2h0Z"/>
  <path class="st0" d="M1010.3,254.1c3.6-39.9-3.6-81,4.7-120.3,7.9-17.9,29.3-6.9,50.4-26.6,11.1-7.6,22.7,9,11.8,16.8-12.6,10.4-27.3,16.5-43.5,18.5h0c-4.4,37.5,0,75-2.8,112.4-.4,6.7-5.6,9.8-10.7,9.6s-10-3.8-9.8-10.5h-.1Z"/>
  <path class="st0" d="M1020.3,185.3c-9.3-22.7,27.1-15.3,39.5-17.5,13.4-.4,14.3,19.8.9,20.5-9.7.5-19.4.6-29.1,1.4-1,.2-2,.3-3,.3-3.2-.1-6.4-1.8-8.2-4.7h-.1Z"/>
  <path class="st0" d="M1022.2,242.7c-2.9-4.7-1.2-11.3,3.6-14.1,6.8-3.7,14.7-3,22.4-2.4,2.5.2,5,.4,7.4.5,8.5.9,17,1.3,25.6,1.7,2.4.1,4.9.2,7.3.3,8.8-.2,13.8,11.2,7.5,17.4-1.8,1.9-4.7,3.3-7.3,3.2-3.2-.2-6.5-.3-9.7-.5-3.6-.2-7.3-.3-10.9-.5-10.5-.5-21-2.3-31.6-2-1.8.9-3.8,1.3-5.7,1.2-3.4-.2-6.6-1.8-8.5-5v.2Z"/>
  <path class="st0" d="M1189.2,263.8c-8.5-6-10.1-30.4-13.4-40.8-6.3-22.8-10.5-42.4-38.7-40.9-1.8,14.7-.5,29.5-2.2,44.2-1.6,13.3-21.8,11.1-20.4-2.3,1.5-16.1.7-32.2,2.4-48.3.5-13.9-2.1-27.6-1.6-41.5-1.5-19.5,3.8-26.4,23.9-22.4,4.2.3,8.4-.4,12.4-1,10.4-1.7,19.3-3.5,23.9,11.9,4.7,15.3,3.2,34.8-12,43.5,20.8,7.9,27.1,32.9,32.4,52.3,2.6,11.8,4.8,22.1,8.3,33.4,2.2,6.7-3.8,13.1-10.1,13.1s-3.3-.4-4.8-1.4v.2ZM1136.9,158.9c11.4-8.8,24.6-9.8,19.5-27.9-6.7,1.6-13.7,1.9-20.6,1.2,0,8.9,0,17.8,1.1,26.7Z"/>
  <path class="st0" d="M1192.4,206.2v-.3.2h0Z"/>
  <path class="st0" d="M706.8,247.7c-3.4-.9-6.6-2.2-9.4-4-3.2-.8-6.1-2.1-8.7-3.8-11.5-8.8-18.9-21.3-20.3-34-2.8-14.2-2-29.9,8.9-41.8,8.7-8.5,19.1-17.3,33.1-19.5,14.4-2.4,28,5.1,37.5,13.1,9.1,8.2,12.5,19.6,12.5,30.3s-2.4,17.3-6.2,25.5c-1,4-2.1,8.1-4.3,11.8-4.1,6.7-9.3,13.6-17.2,17.7-5.7,3-12.4,5.4-19.2,5.4s-4.5-.3-6.7-.8h0Z"/>
  <path class="st0" d="M706,161.2c-5.6-2.3-7.1-8.9-5.8-14.3-.8-3.2.4-6.4,0-9.6v1c-.5-8.2,6.6-12.5,14.1-10.9,6.3-.9,14.9-1.5,18.2,5.3,2,4,.9,8.6.2,12.8,0,1.9.2,3.9.2,5.8,0,7.5-9.3,12.3-15.5,8.3-1.9,1.8-4.3,2.6-6.8,2.6s-3.2-.3-4.6-1h0Z"/>
  <path class="st0" d="M1229.1,247.1c-5.6-.4-9.9-5.4-9.5-11,.7-9.1,1.4-18.3,2.3-27.4,1.2-13.4,3.4-26.6,5.8-39.8,3.3-11.6,2.1-23.8,5.1-35.3,1.8-8.2,11.5-12,18.3-6.9,7.3,5.7,11.7,14.7,15.2,23.2,2.5-7,4-15.4,10.8-19.6,6.8-4.1,16.4-4,22.5,1.4,10.4,10,7.8,26,8.9,39.1,1.1,15.4,4.3,30.6,7.2,45.7,2.9,8.2,11.9,16.3,2,23.7-4.6,3-11.2,1.8-14.2-2.9-6.9-9.5-9.2-20.8-10.8-32.1-3.7-17.3-4.9-34.8-5.6-52.5-2.7,8.5-6,18.4-14.5,22.6-9.1,4.8-20.7-.7-23-10.6-3.4,17-6.3,34.1-7.6,51.4-2.3,10.3,3,31.1-12.7,31.1h-.2Z"/>
  <path class="st0" d="M1349.3,239.8c-12.8-1.5-10.1-16.3-7.5-25.2,3.6-15.7,5.4-31.8,8.8-47.6,3.2-13.1,22.6-9,20.1,4.3-1.9,8.7-3.2,17.5-4.8,26.2-1.4,9.2-3.3,18.4-5.4,27.5-.7,1.8-.2,3.5-.2,5.3-.4,5.3-5,9.5-10.2,9.5h-.8Z"/>
  <path class="st0" d="M1393.5,237.3c-9.5-22.6-15.4-46.7-21.7-70.3-6.6,10.2-22.3,2.6-18.4-8.9,1.6-4.9,3.3-9.9,5.1-14.7,2.4-7.1,6.4-16.9,15.7-14.9,9.2,2.4,11.2,13.4,14.1,21,6.8,24.8,12.9,50,21.7,74.2,6.9,10.5.4,19.4-7.1,19.4s-6.8-1.7-9.4-5.9h0Z"/>
  <path class="st0" d="M1360.4,207.3c-8.4-2.9-9-14.9-1.3-19.1,2-1.4,4.3-1.9,6.6-1.6,6.4-2.8,12.8-5.4,19.5-7.3,12.9-3.9,19.3,14.9,6.6,19.5-3.4,1.1-6.9,2.2-10.3,3.4-5.4,1.9-11.1,5.9-16.9,5.9s-2.8-.2-4.1-.7h0Z"/>
  <path class="st0" d="M1450.9,178.4c-.6,11.5,4.6,43.8-7.5,48.5-4.6,2.1-10.3.5-13-3.9-3.2-4.5-.6-9.3,0-14,.2-8.7.2-17.3,0-26,.7-13.4-6.9-52,17.5-43.1,5.5,3.1,9.1,8.5,12.5,13.6,9.3,15.1,16.1,31.6,26.7,46-2.1-15.7-2.2-31.5-2.4-47.3,0-13.5,19.9-14,20.5-.5,0,13.4.4,26.7,1.5,40,.3,13.3,11.5,38.5-7.1,43.5-17.8,3.3-41.4-42.9-48.9-56.9h.1Z"/>
  <path class="st0" d="M710.5,127.1c0-14.4,6.2-28.5-8.8-37.9-1.6-.8-3.3-.6-5-.4-1,0-2.1.2-3.1,0h-.3c-.8,0-1.6-.4-2.4-.9h0c.2,0,.4-.2.5-.3,0,0,0,0,.2,0h.2s.2,0,.2,0h0s.2,0,.3-.2c.3-.2.6-.3.9-.6,0,0,.3-.2.4-.3,1.2-.5,1.2-2.3,0-2.8-.2,0-.3,0-.5,0,0,0-.3,0-.4,0h-.2c-.2,0-.3,0-.5-.2s-.4-.2-.6-.3c-.3,0-.5-.3-.8-.4h0c0,0-.2,0-.4-.2,0,0-.2,0-.3,0v-.3c0-.2,0-.4.2-.5,0-.2,0-.4.2-.5,0-.2,0-.3.2-.5h0c0,0,0-.3,0-.4h0c0-.3.2-.6.2-1v-.7c.6-.4,1.2-.7,1.9-.8h.4c12.3-2.8,22.1,5.5,27.7,15.7,3.1,6.5,3.5,13.8,2.6,20.9-.3,4.2-.8,8.3-.9,12.5,0,1.8-.3,3.4-1.5,4.8-1.1,1.4-2.7,2-4.3,2-3.1,0-6.2-2.2-6.3-5.7v-.5Z"/>
  <path class="st3" d="M678.4,93.5c-.6-1.2-.4-2.5-.3-3.9v-.9c-.5-.4-1-.6-1.5-1h0c-.3-.3-.5-.8-1-1-2-1.3-1.8-3.4.6-3.9,1-.3,2-.4,3-.4v-.3c0-.5-.2-1-.2-1.5,0-.8-.2-1.7-.2-2.5s0-.8.2-1.2v.3c-.2,1.1.4,2,.6,3.1,0,.2.2.4.2.7h.2c0,0,0,.3.2.3h0c0,.5,0,1-.3,1.4,0,0-.2.2-.3.3-.4.3-.8.4-1.4.2-1.1.4-2.4.5-3.3,1.4.7.8,1.5,1.5,2.3,2.2h.2s.2,0,.2,0h0s.2,0,.3.2h0s.2,0,.2.2,0,0,0,0,.2.3.3.4h0v.6c0,.2,0,.4,0,.6-.2,1-.3,2.1-.3,3v.2h0v.5h0l.3.8Z"/>
  <path class="st3" d="M683.1,78.9c-.5,0-.8-.7-1.3-.9-.8-.6-1.4-1.4-2.4-1.7h0c.4-.3,1-.4,1.6,0,.5.3,1,.6,1.5,1,.6.5,1.2,1,1.8,1.6h-1.3.1Z"/>
  <path class="st3" d="M689,76.9c-1,.3-2.2,1.1-3.1,1.3-.4.2-.8.5-1.3.6,1-.5,2.9-1.7,4.4-2h0Z"/>
  <path class="st3" d="M692.5,83.1h-.3c0,0-.2,0-.3,0-.2,0-.3,0-.5-.2-.8.7-2.4.3-2.4-1.1,0-1.7.9-2.6,1-4.2h0c0,0-.2-.2-.4-.3l-.2-.2c.7,0,1.2.2,1.5.8v.9c0,.3,0,.6-.2,1h0c0,0,0,.3,0,.4h0c0,.2,0,.3-.2.5,0,.2,0,.4-.2.5,0,.2,0,.4-.2.5v.3c0,0,.2,0,.3,0,0,0,.2,0,.4.2h0c.3,0,.5.2.8.4.2,0,.4.2.6.3.2,0,.3,0,.5.2h0Z"/>
  <path class="st3" d="M689.5,94.6c-.7-.2-1.4-.4-2.1-.6,0,0-.2,0-.3,0h-.3c0,0-.2,0-.3-.2,0,0-.2,0-.3,0h0c0,0-.2,0-.3-.2h0s0,0-.2-.2h0c0,0-.3-.2-.4-.3-.2,0-.3,0-.5-.2h0s-.2,0-.2,0c0,0-.2,0-.4-.2h0c-.2,0-.3,0-.4.2h0s-.2,0-.3.2h0s-.2,0-.2.2c0,0-.2,0-.2.2,0,0-.2,0-.3.2s-.2.2-.4.3c0,0-.2.2-.3.2-.2,0-.4.2-.5.4-.3,0-.6.2-.9.2.3-.2.6-.4.9-.6,0,0,.2,0,.3-.2.2-.2.4-.4.6-.5h0s.2,0,.3-.2h.4s0,0,0-.2h1.1c.4,0,.8,0,1.2.4,2.1,1,4.1,2.6,6.5,2.1.8-1.3-.4-2.8-.7-4,0-.3-.2-.6-.4-.9,0,0,0-.2-.2-.4h0v-.4h0c.8,1.7,2.1,3.1,2,5,0,1-1,1.4-1.9,1.4s-.6,0-.9-.2l-.2-1.2Z"/>
  <path class="st3" d="M690.4,87.9v-.8h0s0,0,0-.2h0q0,0,0,0h.3c1.1-.7,2.1-1.2,3.1-2-.2-.2-.3-.3-.5-.4,0,0-.2-.2-.4-.3-.3-.2-.6-.4-1-.6,0,0,.3,0,.4,0,.2,0,.3,0,.5,0,1.2.4,1.3,2.2,0,2.8-.2,0-.3.2-.4.3,0,0-.3.2-.4.2,0,0-.2,0-.2.2,0,0,0,0-.2,0h0s-.2,0-.3.2h0s-.2,0-.2,0h-.2s0,0-.2,0c0,0-.2,0-.3.2h-.2c0,0-.3,0-.4.2h0v-.2h.4Z"/>
  <path class="st3" d="M686.2,93.5h0Z"/>
  <path class="st3" d="M686.2,93.5h0Z"/>
  <path class="st3" d="M686.2,93.5h0Z"/>
  <path class="st3" d="M686.2,93.5h0Z"/>
  <path class="st3" d="M686.2,93.5h0Z"/>
  <path class="st3" d="M685.4,93h0Z"/>
  <path class="st3" d="M685.4,92.9h0Z"/>
  <path class="st3" d="M684.2,92.3h0,0Z"/>
  <path class="st3" d="M684.3,92.3h0Z"/>
  <path class="st1" d="M684.1,94.9h0c-.7-.3-1.4-.6-1.5-1.4v-.7c0,0,0-.2,0-.3h0s0,0,0-.2h1.1c.4,0,.8,0,1.2.4,2.1,1,4.1,2.6,6.5,2.1.8-1.3-.4-2.8-.7-4,0-.3-.2-.6-.4-.9,0,0,0-.2-.2-.4h0v-.4h0v-.2h0c0-.4.3-.7.6-.8.4-.2.8-.3,1.1-.2h0c.6.2,1,.8,1.3,1.5v.2c0,.3.3.7.3,1,1.1,2,1.4,4.4,0,6.3-.8,1.1-2.2,1.1-3.5,1.2-2.4,0-4.4-1.4-6.5-2.4l.4-.8Z"/>
  <path class="st1" d="M691.2,89.2c-.5-.2-.7-.6-.8-1h0v-1h0s0,0,0-.2h0q0,0,0,0h.3c1.1-.7,2.1-1.2,3.1-2-.2-.2-.3-.3-.5-.4,0,0-.2-.2-.4-.3-.3-.2-.6-.4-1-.6h-.3c0,0-.2,0-.3,0-.2,0-.3,0-.5-.2s-.5-.3-.7-.4h0c-.3,0-.5-.3-.6-.5-.5-.7,0-1.8.7-2.1.3-.2.8-.2,1.2,0,0,0,.3,0,.4.2.3.2.6.4.8.4.9.2,1.6.7,2.3,1.2,2.7,1.7,3.1,4.3.2,6-.7.6-1.4.9-2.1,1.3h-.2c-.4.3-.9.6-1.5.6s-.4,0-.6-.2l.2-.6Z"/>
  <path class="st1" d="M688.9,81.5c0-1.7.9-2.6,1-4.2h0c0,0-.2-.2-.4-.3l-.2-.2h-.2c-1,.3-2.2,1.1-3.1,1.3-.4.2-.8.5-1.3.6h-.7c-.5,0-1-.2-1.3-.9,0-.3,0-.6,0-.9,0-.6.6-1,1.2-1.2,0,0,.2,0,.3-.2.9-.5,1.9-.9,2.9-1.3.9-.5,1.7-.9,2.7-.7.8,0,1.4.3,1.8.9.8.5,1.4,1.4,1.4,2.3s-.3,1.8-.5,2.7c0,.2,0,.4-.2.5-.2.4-.3.7-.3,1.2s-.2.8-.5,1.1h0c-.3.2-.6.3-1,.3-.7,0-1.4-.5-1.5-1.4v.4Z"/>
  <path class="st1" d="M677,81.9c-.2-.3-.3-.6-.4-1-.6-1.6-.8-3.3-.5-4.9.3-1.7,2.2-3.1,3.9-2.7,1.6.3,2.8,1.5,4,2.5.2.2.5.4.8.6.7.8.3,1.9-.5,2.3,0,0-.3,0-.4.2h-.7c-.5,0-.8-.7-1.3-.9-.8-.6-1.4-1.4-2.4-1.7h0s0,0,0,0h0c0,0,0,.3,0,.5s0,.1,0,0v.3c-.2,1.1.4,2,.6,3.1,0,.2.2.4.2.7,0,.5-.2.9-.5,1.2-.3.2-.6.4-1,.4s-.8-.2-1.2-.6h-.4Z"/>
  <path class="st1" d="M676.9,90.1c-.4,0-.8-.2-1.1-.3-1.2-.6-2.1-1.9-3-2.7-2.6-3,1.1-5.5,3.9-6.1h.4c.4-.3.8-.2,1.2-.2h.6c.3,0,.6.2.8.4h0q0,0,0,.2h0v.2h0v.3h0c0,1-.8,1.9-2.1,1.6-1.1.4-2.4.5-3.3,1.4.7.8,1.5,1.5,2.3,2.2h.5s0,0,0,.2c.2.3.3.6.3,1s-.2.7-.4.9c-.3.3-.7.5-1.1.5h0l.7.4Z"/>
  <path class="st1" d="M678.3,97.8c-.8,0-1.5-.5-1.9-1.2-.4-.4-.6-.9-.8-1.4-.3-.7,0-1.5,0-2.2,0-1.1,0-2.1.3-3.2,0-.5.2-.9.3-1.4.2-.3.4-.5.6-.6.5-.3,1.1-.3,1.6,0,0,0,.2,0,.2.2s0,0,0,0h0s0,.2.2.3h0v.6c0,.2,0,.4,0,.6-.2,1-.3,2.1-.3,3h0v.8c0,.5,0,.9.4,1.3h0c.5-.2.9-.4,1.3-.7h0s.2,0,.3-.2c0,0,.2-.2.4-.3,0,0,.2,0,.2-.2,0,0,.2,0,.3-.2.2-.2.4-.4.6-.5h1.1c.4,0,.7,0,1.1.5.6.7.4,1.4,0,2-.4.5-1.1,1-1.6,1.3-1.2.8-2.2,1.6-3.6,1.6h-.5l-.2-.2Z"/>
  <path class="st2" d="M678.8,94.9c-.5-.4-.5-.8-.4-1.3v-.4h0v-.3c0-1,.2-2.1.3-3,0-.2,0-.4,0-.6v-.4h0v-.2c0,0,0-.3-.3-.4h0c0,0,0-.2-.2-.3h0s-.2-.2-.3-.2h0s-.2,0-.2,0h-.2c-.8-.7-1.6-1.4-2.3-2.2.9-.9,2.2-1.1,3.3-1.4.6,0,1.1,0,1.4-.2,0,0,.2-.2.3-.3.3-.4.4-.9.3-1.4h0s0-.2-.2-.2h0q0,0,0,0h0c0-.2,0-.4-.2-.7-.2-1-.8-2-.6-3.1v-.3q0,0,0,0c0-.2,0-.3,0-.5h0s0,0,0,0h0c1,.3,1.5,1.1,2.4,1.7.5.3.7.8,1.3.9h1.4c.4,0,.9-.4,1.3-.6,1-.3,2.2-1,3.1-1.3h.2l.2.2c0,0,.2.2.4.3h0c0,1.6-1.1,2.5-1,4.2,0,1.4,1.6,1.8,2.4,1.1,0,0,.3.2.5.2s.2,0,.3,0h.5c.3.2.7.4,1,.6,0,0,.2.2.4.3.2,0,.4.3.5.4-1,.8-2,1.3-3.1,2h-.4s0,0,0,.2h0v1h0v.2h0v.4h0c0,0,0,.2.2.4.2.3.3.6.4.9.3,1.2,1.5,2.7.7,4-2.4.5-4.4-1.2-6.5-2.1-.3-.3-.8-.4-1.2-.4s0,0-.2,0h-.9v.2h-.5s-.2,0-.3.2h0c-.2,0-.4.3-.6.5,0,0-.2,0-.3.2-.3.2-.6.4-.9.6h0c-.4.3-.8.5-1.3.7h0l-.6.6Z"/>
  <path class="st3" d="M680.8,90.4h0Z"/>
  <path class="st3" d="M681.1,88.1h0s0-.2-.2-.2h0q0,0,0,0h0s0,.2.2.2h0Z"/>
  <path class="st3" d="M680.4,87.2h0,0s0,0,.2,0h-.2Z"/>
  <path class="st3" d="M678.7,85.7c.4.5.9.9,1.4,1.3-.5-.4-1-.8-1.4-1.3Z"/>
  <path class="st3" d="M680.9,84.9h0Z"/>
  <path class="st3" d="M680.6,84.9h.2-.2Z"/>
  <path class="st3" d="M681.7,84.5h0Z"/>
  <path class="st3" d="M681.8,84.2c0,0,0,.2,0,.3,0,0,0-.2,0-.3Z"/>
  <path class="st3" d="M681.9,84.1h0Z"/>
  <path class="st3" d="M681.9,84.1h0Z"/>
  <path class="st3" d="M681.9,84.1h0Z"/>
  <path class="st3" d="M681.9,84h0Z"/>
  <path class="st3" d="M681.9,84h0Z"/>
  <path class="st3" d="M681.9,83.9h0Z"/>
  <path class="st3" d="M681.8,83.7h0Z"/>
  <path class="st3" d="M681.8,83.6h0Z"/>
  <path class="st3" d="M681.8,83.6h0q0,0,0,0Z"/>
  <path class="st3" d="M681.6,83.3h0c0,0,0-.3,0-.4,0-.2,0-.3,0-.5,0,.2,0,.3,0,.5s0,.3,0,.4h0Z"/>
  <path class="st3" d="M684,82.1h0,0Z"/>
  <path class="st3" d="M683.7,82.1h.2-.2Z"/>
  <path class="st3" d="M688,84.5h0Z"/>
  <path class="st3" d="M687.1,83.7c0,.5.4.7.8.8-.4,0-.7-.3-.8-.8Z"/>
  <path class="st3" d="M687.7,81.1h0Z"/>
  <path class="st3" d="M688.2,91.4h0Z"/>
  <path class="st3" d="M685.8,90.5c.7.4,1.5.8,2.3.8-.8,0-1.6-.4-2.3-.8Z"/>
  <path class="st3" d="M682.3,90.9s0,0,.2,0c0,0,.2-.2.4-.3h.4-.4c0,0-.3.2-.4.3,0,0,0,0-.2,0-.2,0-.4.3-.5.4.2,0,.4-.3.5-.4Z"/>
  <path class="st3" d="M688.9,90.7h0Z"/>
  <path class="st3" d="M688.9,90.7h0Z"/>
  <path class="st3" d="M688.9,90.6h0Z"/>
  <path class="st3" d="M685.1,90.1h0Z"/>
  <path class="st3" d="M683.4,90.1h0Z"/>
  <path class="st3" d="M683.4,90.1h0Z"/>
  <path class="st3" d="M683.5,90h0Z"/>
  <path class="st3" d="M684.9,90c-.2-.2-.5-.2-.7-.2s0,0,0,0h0,.2c.2,0,.5,0,.7.2h0Z"/>
  <path class="st3" d="M683.6,90h0,0Z"/>
  <path class="st3" d="M683.8,89.8h0Z"/>
  <path class="st3" d="M688.4,89.1h0Z"/>
  <path class="st3" d="M688.4,89h0Z"/>
  <path class="st3" d="M688.4,89h0Z"/>
  <path class="st3" d="M688.3,88.9h0Z"/>
  <path class="st3" d="M688,88.1h0Z"/>
  <path class="st3" d="M688,88h0Z"/>
  <path class="st3" d="M687.9,87.9h0Z"/>
  <path class="st3" d="M688,87.8h0Z"/>
  <path class="st3" d="M688,87.8h0Z"/>
  <path class="st3" d="M688,87.4v-.2h0q0,0,0,0h0v.2h0Z"/>
  <path class="st3" d="M688.3,86.8h0Z"/>
  <path class="st3" d="M688.3,86.8h0Z"/>
  <path class="st3" d="M688.5,86.7h0c.6-.4,1.3-.7,1.9-1.2-.6.5-1.2.8-1.9,1.2h0Z"/>
  <path class="st3" d="M690.2,85.1h0Z"/>
  <path class="st1" d="M688.2,91.4h0Z"/>
  <path class="st1" d="M685.8,90.5c.7.4,1.5.8,2.3.8-.8,0-1.6-.4-2.3-.8Z"/>
  <path class="st1" d="M688.9,90.7h0Z"/>
  <path class="st1" d="M688.9,90.7h0Z"/>
  <path class="st1" d="M688.9,90.6h0Z"/>
  <path class="st1" d="M683.3,90.2h0Z"/>
  <path class="st1" d="M685.1,90.1h0Z"/>
  <path class="st1" d="M683.5,90h0Z"/>
  <path class="st1" d="M684.9,90c-.2-.2-.5-.2-.7-.2s0,0,0,0h-.3.4c.2,0,.5,0,.7.2h0Z"/>
  <path class="st1" d="M688.4,89.1h0Z"/>
  <path class="st1" d="M688.4,89h0s0,0,0,0Z"/>
  <path class="st1" d="M688.4,89h0Z"/>
  <path class="st1" d="M688.3,88.9h0Z"/>
  <path class="st1" d="M687.9,87.9h0v.2-.2Z"/>
  <path class="st1" d="M688,87.8h0q0,0,0,0h0Z"/>
  <path class="st1" d="M688,87.4v-.2h0q0,0,0,0h0v.2h0Z"/>
  <path class="st1" d="M688.3,86.8h0Z"/>
  <path class="st1" d="M688.3,86.8h0Z"/>
  <path class="st1" d="M688.5,86.7h0c.6-.4,1.3-.7,1.8-1.2-.6.5-1.2.8-1.8,1.2h0Z"/>
  <path class="st1" d="M688,84.5h0Z"/>
  <path class="st1" d="M687.1,83.7c0,.5.4.7.8.8-.4,0-.7-.3-.8-.8Z"/>
  <path class="st1" d="M687.7,81.1h0Z"/>
  <path class="st1" d="M681.5,82.9c0-.3-.2-.5-.2-.8,0,.3.2.5.2.8s0,.3,0,.4c0,0,0-.3,0-.4Z"/>
  <path class="st1" d="M681.2,82.1h0Z"/>
  <path class="st1" d="M684,82.1h0,0Z"/>
  <path class="st1" d="M683.7,82.1h.2-.2Z"/>
  <path class="st1" d="M681.1,81h0c0,0,0,0,0,0h0Z"/>
  <path class="st1" d="M681.1,80.9h0Z"/>
  <path class="st1" d="M680.6,87.4h0Z"/>
  <path class="st1" d="M680.5,87.2h0Z"/>
  <path class="st1" d="M680.4,87.2h0Z"/>
  <path class="st1" d="M680.3,87.1h0Z"/>
  <path class="st1" d="M680.2,87.1h0Z"/>
  <path class="st1" d="M680.1,87.1h0Z"/>
  <path class="st1" d="M680.1,87.1h0Z"/>
  <path class="st1" d="M680,87.1c-.5-.4-1-.8-1.4-1.3.4.5.9.9,1.4,1.3Z"/>
  <path class="st1" d="M680.6,84.9h.3c0,0,0,0,0,0h-.3Z"/>
  <path class="st1" d="M681.4,84.8c0,0-.2,0-.4,0,0,0,.3,0,.4,0Z"/>
  <path class="st1" d="M681.4,84.8h0Z"/>
  <path class="st1" d="M681.6,84.7h0Z"/>
  <path class="st1" d="M681.6,84.6h0Z"/>
  <path class="st1" d="M681.6,84.6h0Z"/>
  <path class="st1" d="M681.6,84.6h0Z"/>
  <path class="st1" d="M681.7,84.6h0Z"/>
  <path class="st1" d="M681.7,84.5h0Z"/>
  <path class="st1" d="M681.7,84.5h0Z"/>
  <path class="st1" d="M681.7,84.5h0Z"/>
  <path class="st1" d="M681.7,84.4h0Z"/>
  <path class="st1" d="M681.8,84.4h0Z"/>
  <path class="st1" d="M681.8,84.4h0Z"/>
  <path class="st1" d="M681.8,84.2h0Z"/>
  <path class="st1" d="M681.8,84.2h0Z"/>
  <path class="st1" d="M681.9,84.1h0Z"/>
  <path class="st1" d="M681.9,84.1h0Z"/>
  <path class="st1" d="M681.9,84.1h0Z"/>
  <path class="st1" d="M681.9,84h0Z"/>
  <path class="st1" d="M681.9,84h0Z"/>
  <path class="st1" d="M681.9,83.9h0Z"/>
  <path class="st1" d="M681.9,83.9h0Z"/>
  <path class="st1" d="M681.9,83.9h0Z"/>
  <path class="st1" d="M681.9,83.8h0Z"/>
  <path class="st1" d="M681.9,83.8h0Z"/>
  <path class="st1" d="M681.8,83.7h0Z"/>
  <path class="st1" d="M681.8,83.6h0Z"/>
  <path class="st1" d="M681.8,83.6h0Z"/>
  <path class="st1" d="M681.7,83.4h0Z"/>
  <path class="st1" d="M681.6,83.4h0Z"/>
  <path class="st1" d="M681.6,83.3h0Z"/>
  <path class="st1" d="M681,91.7c.3,0,.5-.3.8-.4h0s0,0,.2,0c0,0,0,0,.2,0,0,0-.2.2-.4.3-.2.2-.5.3-.8.4h0Z"/>
  <path class="st1" d="M681,91.7h0Z"/>
  <path class="st1" d="M680.8,91.2h0Z"/>
  <path class="st1" d="M680.8,91h0c0,0,0,0,0,0h0Z"/>
  <path class="st1" d="M680.8,90.9h0Z"/>
  <path class="st1" d="M682.3,90.9s0,0,.2,0c0,0,.2-.2.4-.3h0c0,0-.3.2-.4.3,0,0,0,0-.2,0h0Z"/>
  <path class="st1" d="M683.1,90.3h0Z"/>
  <path class="st1" d="M680.8,90.7h0Z"/>
  <path class="st1" d="M680.8,90.7h0Z"/>
  <path class="st1" d="M680.8,90.5h0Z"/>
  <path class="st1" d="M680.8,90.4h0Z"/>
  <path class="st1" d="M683.1,90.3h0,0Z"/>
  <path class="st1" d="M683.2,90.2h0Z"/>
  <path class="st1" d="M683.3,90.2h0Z"/>
  <path class="st1" d="M681.1,88.1h0Z"/>
  <path class="st1" d="M681,87.9h0Z"/>
  <path class="st1" d="M681,87.9h0Z"/>
  <path class="st1" d="M681,87.9h0Z"/>
  <path class="st1" d="M681,87.9h0Z"/>
  <path class="st1" d="M681,87.8h0Z"/>
  <path class="st1" d="M680.9,87.6h0Z"/>
  <path class="st1" d="M680.8,87.6h0q0,0,0,0h0Z"/>
  <path class="st0" d="M681,91.7h0s0,0,0,0h0s0,0,0,0h0v-.3h0v-.3h0v-.2h0c0-.7,0-1.3.2-1.9v-.4c0,0,0,0,0,0h0s0-.2-.2-.2h0q0,0-.2-.2h0c-.5-.4-1-.8-1.4-1.3.5-.5,1.3-.6,2-.9.3,0,.6,0,.9,0,0,0,0,0,.2-.2h0c0,0,0-.2,0-.3h0v-.3h0v-.2h0c0,0,0-.3,0-.4,0-.2,0-.3,0-.5,0-.4-.2-.7-.2-1.1v-.3h0v-.2q0,0,0,0v-.3h0c.6.2.9.6,1.4,1,.3.2.4.5.8.6h.7c.3,0,.5-.2.8-.4.6-.2,1.3-.6,1.9-.8h.2c0,0,0,.2.2.3h0c0,.9-.6,1.4-.6,2.3s0,0,0,.2c0,.9,1,1.1,1.5.7,0,0,.2,0,.3,0h.2c.2,0,.4.2.6.4,0,0,0,0,.2.2,0,0,.2.2.3.3-.6.5-1.2.8-1.9,1.2h0v.3h0v.2h0v.2h0s0,.2,0,.2c0,.2.2.4.2.5h0c.2.5.5,1,.5,1.6h0v.2c0,.2,0,.3-.2.5-1.5.3-2.6-.7-3.9-1.3-.2-.2-.5-.2-.7-.2s0,0,0,0h-.6c0,0-.3.2-.4.3,0,0,0,0-.2,0-.2,0-.4.3-.5.4-.2.2-.5.3-.8.4h-.9Z"/>
  <path class="st0" d="M683.9,85.7c0-.8.6-1.5,1.4-1.5s1.5.6,1.5,1.4-.6,1.5-1.4,1.5-1.5-.6-1.5-1.4Z"/>
  <path class="st0" d="M684,86.8c-.5-.6-.3-1.6,0-2,1.2-1.5,3.5.2,2.4,1.7-.3.5-.8.8-1.4.8s-.8-.2-1.1-.5Z"/>
  <path class="st0" d="M683.7,86.6c-.4-.8,0-1.6.7-2.2-.5-1.3,1-2.6,2.2-1.8.5.2.5,1,1,1.2,0,0,.3,0,.4.2,2.7.9.9,4.3-1.4,2.6-.3.6-.9,1-1.5,1s-1.1-.3-1.3-.9h-.1Z"/>
</svg>