<?xml version="1.0" encoding="utf-8"?>
<!-- Generator: Adobe Illustrator 26.4.1, SVG Export Plug-In . SVG Version: 6.00 Build 0)  -->
<svg version="1.1" id="Layer_1" xmlns="http://www.w3.org/2000/svg" xmlns:xlink="http://www.w3.org/1999/xlink" x="0px" y="0px"
	 viewBox="0 0 200 200" style="enable-background:new 0 0 200 200;" xml:space="preserve">
<style type="text/css">
	.st0{stroke:#000000;stroke-width:2;stroke-miterlimit:10;}
</style>
<g>
	<path class="st0" d="M137.2,45.8c-0.8-6.2-4.8-11.4-10.4-14c-1.3-0.6-2.7-1-4.1-1.4c0.4-0.5,0.7-0.9,1.1-1.4
		c3.4-4.9,4.6-11.5,1.9-16.9c-2.5-5-8.2-8.3-13.8-8.1c-6,0.2-11.1,3.7-14.2,8.6c-0.8,1.2-0.8,2.4-0.4,3.3c0,0,0,0,0,0.1
		c2.5,8.2,1.9,16.7,2,25.1c0.1,4.2,0.3,8.3,1,12.4c0.7,4.6,2.2,8.9,1.7,13.6c-0.2,1.7,1.2,3.2,2.8,3.8c0.9,2.2,3.7,2.7,5.7,1.8
		c3.8-1.8,7.5-3.5,11.2-5.3c3.2-1.5,6.5-2.9,9.3-5.2C135.6,58.2,137.9,51.8,137.2,45.8z M112.7,12.1c3.1,0.3,5.9,2.4,6.4,5.6
		c1,7-6.2,11.4-11.8,14.4c-0.1-5.6-0.4-11.1-1.8-16.5C107.2,13.4,109.8,11.9,112.7,12.1z M122.8,57.9c-3.9,2.1-8,3.9-12.1,5.8
		c-0.2-0.1-0.5-0.2-0.7-0.3c-0.2-3.4-1.1-6.8-1.7-10.1c-0.8-4.3-1-8.6-1-12.9c0.1,0,0.2,0.1,0.3,0c4.9-0.2,9.5-3.4,14.4-1.9
		c4.1,1.3,7.1,4.7,7.3,9C129.5,52.3,126.8,55.8,122.8,57.9z"/>
	<g>
		<path d="M102.2,120c-0.4-3.2-3.3-5.3-6.4-5.6c-2.9-0.2-5.5,1.3-7.3,3.4c1.4,5.4,1.8,10.9,1.8,16.5C96,131.5,103.2,127.1,102.2,120
			z"/>
		<path d="M105.2,140.9c-4.9-1.5-9.5,1.7-14.4,1.9c-0.1,0-0.2,0-0.3-0.1c0,4.3,0.2,8.7,1,12.9c0.7,3.4,1.5,6.7,1.7,10.1
			c0.2,0.1,0.5,0.2,0.7,0.3c4.1-1.8,8.2-3.7,12.1-5.8c4-2.1,6.7-5.6,6.5-10.3C112.3,145.6,109.3,142.2,105.2,140.9z"/>
		<path d="M94.3,82.4c-1.5,0-3,0.1-4.5,0.3c-2.9,0-5.7,0.3-8.5,0.8L70.5,70.3c-1.1,0.7-2.3,1.3-3.4,2c-1.8,1.1-3.5,2.2-5.2,3.3
			c-5.6-7.3-12.5-18.2-12-27.8c0.7-14.3,16.8-24.2,30.3-28.3L77.1,9.3c-17.7,5.4-37,18.2-38,38c-0.6,12.4,6.8,25.1,13.7,34.2
			c-2.4,1.6-4.8,3.1-7.2,4.7c1.8,4.6,4.4,7.5,7.8,13.3c-5.6,6.7-9.5,15-11,24.7c-5.5,34.1,6.1,68.5,44.5,72.3
			c31.2,3.1,68.2-15.2,67.8-50.2C154.4,111.2,130.8,81.8,94.3,82.4z M114.1,164.5c-2.8,2.3-6.1,3.7-9.3,5.2
			c-3.8,1.8-7.5,3.5-11.2,5.3c-2,1-4.8,0.4-5.7-1.8c-1.6-0.5-3-2.1-2.8-3.8c0.6-4.7-1-9-1.7-13.6c-0.7-4.1-0.9-8.2-1-12.4
			c-0.1-8.4,0.4-17-2-25.1c0,0,0,0,0,0c-0.4-1-0.4-2.2,0.4-3.3c3.2-4.9,8.3-8.4,14.2-8.6c5.6-0.2,11.3,3.1,13.8,8.1
			c2.7,5.4,1.5,12-1.9,16.9c-0.3,0.5-0.7,0.9-1.1,1.4c1.4,0.3,2.8,0.8,4,1.4c5.6,2.6,9.7,7.8,10.4,14
			C121.2,154.2,118.8,160.6,114.1,164.5z"/>
	</g>
</g>
</svg>
