<?xml version="1.0" encoding="UTF-8"?>
<svg id="Layer_1" xmlns="http://www.w3.org/2000/svg" version="1.1" viewBox="0 0 200 200">
  <!-- Generator: Adobe Illustrator 29.7.1, SVG Export Plug-In . SVG Version: 2.1.1 Build 8)  -->
  <defs>
    <style>
      .st0, .st1 {
        fill: #fff;
      }

      .st1 {
        stroke: #fff;
        stroke-miterlimit: 10;
        stroke-width: 2px;
      }
    </style>
  </defs>
  <path class="st1" d="M137.2,45.8c-.8-6.2-4.8-11.4-10.4-14-1.3-.6-2.7-1-4.1-1.4.4-.5.7-.9,1.1-1.4,3.4-4.9,4.6-11.5,1.9-16.9-2.5-5-8.2-8.3-13.8-8.1-6,.2-11.1,3.7-14.2,8.6-.8,1.2-.8,2.4-.4,3.3h0c2.5,8.3,1.9,16.8,2,25.2,0,4.2.3,8.3,1,12.4.7,4.6,2.2,8.9,1.7,13.6-.2,1.7,1.2,3.2,2.8,3.8.9,2.2,3.7,2.7,5.7,1.8,3.8-1.8,7.5-3.5,11.2-5.3,3.2-1.5,6.5-2.9,9.3-5.2,4.6-4,6.9-10.4,6.2-16.4ZM112.7,12.1c3.1.3,5.9,2.4,6.4,5.6,1,7-6.2,11.4-11.8,14.4,0-5.6-.4-11.1-1.8-16.5,1.7-2.2,4.3-3.7,7.2-3.5ZM122.8,57.9c-3.9,2.1-8,3.9-12.1,5.8-.2,0-.5-.2-.7-.3-.2-3.4-1.1-6.8-1.7-10.1-.8-4.3-1-8.6-1-12.9,0,0,.2,0,.3,0,4.9-.2,9.5-3.4,14.4-1.9,4.1,1.3,7.1,4.7,7.3,9,.2,4.8-2.5,8.3-6.5,10.4Z"/>
  <g>
    <path class="st0" d="M102.2,120c-.4-3.2-3.3-5.3-6.4-5.6-2.9-.2-5.5,1.3-7.3,3.4,1.4,5.4,1.8,10.9,1.8,16.5,5.7-2.8,12.9-7.2,11.9-14.3Z"/>
    <path class="st0" d="M105.2,140.9c-4.9-1.5-9.5,1.7-14.4,1.9,0,0-.2,0-.3-.1,0,4.3.2,8.7,1,12.9.7,3.4,1.5,6.7,1.7,10.1.2.1.5.2.7.3,4.1-1.8,8.2-3.7,12.1-5.8,4-2.1,6.7-5.6,6.5-10.3-.2-4.3-3.2-7.7-7.3-9Z"/>
    <path class="st0" d="M94.3,82.4c-1.5,0-3,0-4.5.3-2.9,0-5.7.3-8.5.8l-10.8-13.2c-1.1.7-2.3,1.3-3.4,2-1.8,1.1-3.5,2.2-5.2,3.3-5.6-7.3-12.5-18.2-12-27.8.7-14.3,16.8-24.2,30.3-28.3l-3.1-10.2c-17.7,5.4-37,18.2-38,38-.6,12.4,6.8,25.1,13.7,34.2-2.4,1.6-4.8,3.1-7.2,4.7,1.8,4.6,4.4,7.5,7.8,13.3-5.6,6.7-9.5,15-11,24.7-5.5,34.1,6.1,68.5,44.5,72.3,31.2,3.1,68.2-15.2,67.8-50.2-.3-35.1-23.9-64.5-60.4-63.9ZM114.1,164.5c-2.8,2.3-6.1,3.7-9.3,5.2-3.8,1.8-7.5,3.5-11.2,5.3-2,1-4.8.4-5.7-1.8-1.6-.5-3-2.1-2.8-3.8.6-4.7-1-9-1.7-13.6-.7-4.1-.9-8.2-1-12.4,0-8.4.4-17-2-25.1h0c-.4-1-.4-2.2.4-3.3,3.2-4.9,8.3-8.4,14.2-8.6,5.6-.2,11.3,3.1,13.8,8.1,2.7,5.4,1.5,12-1.9,16.9-.3.5-.7.9-1.1,1.4,1.4.3,2.8.8,4,1.4,5.6,2.6,9.7,7.8,10.4,14,1,6-1.4,12.4-6.1,16.3Z"/>
  </g>
</svg>